<?xml version="1.0" encoding="utf-8"?>
<!-- Generator: Adobe Illustrator 16.0.0, SVG Export Plug-In . SVG Version: 6.00 Build 0)  -->
<!DOCTYPE svg PUBLIC "-//W3C//DTD SVG 1.1//EN" "http://www.w3.org/Graphics/SVG/1.1/DTD/svg11.dtd">
<svg version="1.1" id="Layer_1" xmlns="http://www.w3.org/2000/svg" xmlns:xlink="http://www.w3.org/1999/xlink" x="0px" y="0px"
	 width="261px" height="300px" viewBox="0 0 522.335 600" enable-background="new 0 0 522.335 600" xml:space="preserve">
<g>
	<path fill="#494949" d="M148.796,555.428c-9.791,6.151-18.714,13.495-28.012,20.328c-7.143,5.252-14.286,10.498-21.311,15.898
		c-2.692,2.075-5.477,3.205-8.896,2.964c-2.404-0.17-4.838,0.044-7.255-0.055c-7.867-0.329-13.789-4.001-17.814-10.713
		c-3.106-5.187-4.563-10.855-4.558-16.903c0-8.067-0.022-16.13-0.033-24.192c0.027-4.308,0.085-8.61,0.085-12.919
		c0.005-154.113,0.005-308.227,0-462.34c-0.006-2.961-0.129-5.919-0.198-8.88c0.049-7.255,0.027-14.511,0.162-21.766
		c0.203-11.182,5.296-20.215,13.427-27.333c6.649-5.812,14.437-4.846,21.958-1.361c2.168,1.007,4.119,2.525,6.081,3.93
		c14.409,10.318,28.791,20.668,43.186,30.997c0.873,0.625,1.828,1.12,2.744,1.677c0.966,0.914,1.861,1.938,2.917,2.73
		c9.037,6.805,18.089,13.583,27.161,20.339c23.322,17.37,46.649,34.729,69.991,52.077c15.562,11.566,31.181,23.048,46.696,34.683
		c19.39,14.538,38.681,29.2,58.032,43.801c14.187,10.705,28.39,21.396,42.582,32.089c17.426,13.122,34.812,26.283,52.309,39.312
		c2.667,1.984,4.791,4.27,6.569,6.995c2.529,3.872,4.434,8.043,5.768,12.434c4.544,14.892,2.025,28.126-9.242,39.4
		c-4.423,4.423-9.593,7.807-14.555,11.508c-18.77,14.012-37.445,28.149-56.21,42.172c-14.889,11.119-29.904,22.073-44.777,33.203
		c-12.722,9.517-25.273,19.258-38.006,28.764c-10.79,8.046-21.799,15.806-32.594,23.852c-23.322,17.37-46.639,34.751-69.832,52.302
		C179.728,532.109,163.732,543.069,148.796,555.428"/>
	<path fill="#A5A5A5" d="M60.805,58.617c0.066,2.961,0.198,5.917,0.198,8.88c0.005,154.113,0.005,308.227,0,462.34
		c0,4.309-0.058,8.611-0.085,12.914c-2.39-0.357-4.086,1.114-5.873,2.277c-4.294,2.793-8.578,5.604-12.826,8.474
		c-2.311,1.564-4.761,2.409-7.587,2.272c-2.42-0.11-4.86,0.099-7.277-0.044c-9.824-0.62-16.764-5.406-20.416-14.609
		c-1.292-3.249-2.119-6.674-2.135-10.23c-0.005-1.619-0.014-3.238-0.014-4.857c0-149.964,0.058-299.939-0.134-449.906
		c-0.011-8.99,2.873-16.319,8.29-22.962c7.447-9.127,16.876-11.182,27.43-5.941c4.091,2.03,7.914,4.615,11.865,6.937
		C55.015,55.791,57.567,57.868,60.805,58.617"/>
	<path fill="#999999" d="M148.796,555.428c14.936-12.359,30.932-23.319,46.375-35.01c23.193-17.551,46.51-34.932,69.832-52.302
		c10.795-8.046,21.804-15.806,32.594-23.852c12.732-9.506,25.284-19.247,38.006-28.764c14.873-11.13,29.889-22.084,44.777-33.203
		c18.765-14.022,37.44-28.16,56.21-42.172c4.962-3.701,10.132-7.085,14.555-11.508c11.268-11.273,13.786-24.508,9.242-39.4
		c-1.334-4.391-3.238-8.562-5.768-12.434c-1.778-2.725-3.902-5.011-6.569-6.995c-17.497-13.029-34.883-26.189-52.309-39.312
		c-14.192-10.694-28.396-21.385-42.582-32.089c-19.352-14.602-38.643-29.263-58.032-43.801
		c-15.515-11.635-31.134-23.116-46.696-34.683c-23.341-17.348-46.669-34.707-69.991-52.077
		c-9.072-6.756-18.125-13.534-27.161-20.339c-1.056-0.793-1.951-1.817-2.917-2.73c5.181-0.584,9.429,1.894,13.54,4.426
		c11.462,7.083,22.905,14.198,34.213,21.524c81.625,52.939,162.587,106.885,243.631,160.708
		c20.888,13.863,41.792,27.688,62.598,41.666c12.497,8.389,16.8,20.534,14.911,35.061c-0.598,4.61-3.111,8.583-6.229,12.055
		c-3.255,3.625-6.915,6.767-10.998,9.453c-31.744,20.894-63.438,41.855-95.177,62.755c-29.707,19.57-59.453,39.081-89.177,58.619
		c-51.348,33.746-102.717,67.455-154.009,101.289C157.608,554.995,153.582,556.438,148.796,555.428"/>
</g>
</svg>
