<?xml version="1.0" encoding="UTF-8" standalone="no"?>
<svg
   xmlns:dc="http://purl.org/dc/elements/1.1/"
   xmlns:cc="http://creativecommons.org/ns#"
   xmlns:rdf="http://www.w3.org/1999/02/22-rdf-syntax-ns#"
   xmlns:svg="http://www.w3.org/2000/svg"
   xmlns="http://www.w3.org/2000/svg"
   xmlns:sodipodi="http://sodipodi.sourceforge.net/DTD/sodipodi-0.dtd"
   xmlns:inkscape="http://www.inkscape.org/namespaces/inkscape"
   version="1.1"
   width="120"
   height="120"
   viewBox="0 0 24.00 24.00"
   id="svg2"
   inkscape:version="0.48.4 r9939"
   sodipodi:docname="emoticon_sad.svg">
  <metadata
     id="metadata10">
    <rdf:RDF>
      <cc:Work
         rdf:about="">
        <dc:format>image/svg+xml</dc:format>
        <dc:type
           rdf:resource="http://purl.org/dc/dcmitype/StillImage" />
      </cc:Work>
    </rdf:RDF>
  </metadata>
  <defs
     id="defs8" />
  <sodipodi:namedview
     pagecolor="#ffffff"
     bordercolor="#666666"
     borderopacity="1"
     objecttolerance="10"
     gridtolerance="10"
     guidetolerance="10"
     inkscape:pageopacity="0"
     inkscape:pageshadow="2"
     inkscape:window-width="708"
     inkscape:window-height="480"
     id="namedview6"
     showgrid="false"
     inkscape:zoom="9.8333333"
     inkscape:cx="12"
     inkscape:cy="12"
     inkscape:window-x="0"
     inkscape:window-y="0"
     inkscape:window-maximized="0"
     inkscape:current-layer="svg2" />
  <path
     d="M16.3 16.1l-1.4 1.4C14.2 16.6 13.2 16 12 16s-2.2 0.6-2.9 1.5l-1.4-1.4c0.5-0.6 1.1-1.2 1.8-1.5c0 0 0 0 0 0c0.5-0.2 1-0.4 1.5-0.5c0.1 0 0.1 0 0.2 0c0.3 0 0.5-0.1 0.8-0.1c0.3 0 0.5 0 0.8 0.1c0.1 0 0.1 0 0.2 0c0.5 0.1 1 0.2 1.5 0.5c0 0 0 0 0 0C15.2 14.9 15.8 15.5 16.3 16.1zM10 9.5C10 8.7 9.3 8 8.5 8C7.7 8 7 8.7 7 9.5C7 10.3 7.7 11 8.5 11C9.3 11 10 10.3 10 9.5zM15.5 8C14.7 8 14 8.7 14 9.5c0 0.8 0.7 1.5 1.5 1.5c0.8 0 1.5-0.7 1.5-1.5C17 8.7 16.3 8 15.5 8zM22 12c0 5.5-4.5 10-10 10C6.5 22 2 17.5 2 12C2 6.5 6.5 2 12 2C17.5 2 22 6.5 22 12zM20 12c0-4.4-3.6-8-8-8c-4.4 0-8 3.6-8 8  c0 4.4 3.6 8 8 8C16.4 20 20 16.4 20 12z"
     id="path4"
     style="fill:#6f6f6f;fill-opacity:1" />
</svg>
