<?xml version="1.0" encoding="UTF-8" standalone="no"?>
<!-- Created with Inkscape (http://www.inkscape.org/) -->

<svg
   xmlns:dc="http://purl.org/dc/elements/1.1/"
   xmlns:cc="http://creativecommons.org/ns#"
   xmlns:rdf="http://www.w3.org/1999/02/22-rdf-syntax-ns#"
   xmlns:svg="http://www.w3.org/2000/svg"
   xmlns="http://www.w3.org/2000/svg"
   xmlns:sodipodi="http://sodipodi.sourceforge.net/DTD/sodipodi-0.dtd"
   xmlns:inkscape="http://www.inkscape.org/namespaces/inkscape"
   id="svg2985"
   version="1.1"
   inkscape:version="0.48.4 r9939"
   width="48"
   height="48"
   xml:space="preserve"
   sodipodi:docname="Radio Logo Multi IM SO SORRY GUISE.psd.ai"><metadata
     id="metadata2991"><rdf:RDF><cc:Work
         rdf:about=""><dc:format>image/svg+xml</dc:format><dc:type
           rdf:resource="http://purl.org/dc/dcmitype/StillImage" /><dc:title></dc:title></cc:Work></rdf:RDF></metadata><defs
     id="defs2989"><clipPath
       clipPathUnits="userSpaceOnUse"
       id="clipPath2999"><path
         d="m 0,254.808 360,0 L 360,0 0,0 0,254.808 z"
         id="path3001"
         inkscape:connector-curvature="0" /></clipPath></defs><sodipodi:namedview
     pagecolor="#ffffff"
     bordercolor="#666666"
     borderopacity="1"
     objecttolerance="10"
     gridtolerance="10"
     guidetolerance="10"
     inkscape:pageopacity="0"
     inkscape:pageshadow="2"
     inkscape:window-width="1920"
     inkscape:window-height="1058"
     id="namedview2987"
     showgrid="false"
     inkscape:snap-object-midpoints="true"
     inkscape:zoom="5.6568543"
     inkscape:cx="25.092118"
     inkscape:cy="28.096514"
     inkscape:window-x="1912"
     inkscape:window-y="-8"
     inkscape:window-maximized="1"
     inkscape:current-layer="g2995" /><g
     id="g2993"
     inkscape:groupmode="layer"
     inkscape:label="Radio Logo Multi IM SO SORRY GUISE.psd"
     transform="matrix(1.25,0,0,-1.25,0,47.99999)"><g
       id="g2995"><g
         transform="matrix(0.31508038,0,0,0.31508038,12.89973,4.8794639)"
         id="g3007"><path
           inkscape:connector-curvature="0"
           id="path3009"
           style="fill:#464646;fill-opacity:1;fill-rule:nonzero;stroke:none"
           d="m 0,0 c -1.742,-1.095 -3.33,-2.402 -4.984,-3.618 -1.271,-0.934 -2.542,-1.868 -3.792,-2.829 -0.479,-0.369 -0.975,-0.57 -1.583,-0.527 -0.428,0.03 -0.861,-0.008 -1.291,0.01 -1.4,0.058 -2.454,0.712 -3.17,1.906 -0.553,0.923 -0.812,1.932 -0.811,3.008 0,1.435 -0.004,2.87 -0.006,4.305 0.005,0.766 0.015,1.532 0.015,2.298 10e-4,27.423 10e-4,54.846 0,82.269 -10e-4,0.527 -0.023,1.053 -0.035,1.58 0.009,1.291 0.005,2.582 0.029,3.873 0.036,1.99 0.942,3.597 2.389,4.864 1.183,1.034 2.569,0.862 3.907,0.242 0.386,-0.179 0.733,-0.449 1.082,-0.699 2.564,-1.836 5.123,-3.678 7.685,-5.516 0.155,-0.111 0.325,-0.199 0.488,-0.298 0.172,-0.163 0.331,-0.345 0.519,-0.486 1.608,-1.211 3.219,-2.417 4.833,-3.619 4.15,-3.091 8.301,-6.18 12.454,-9.267 2.769,-2.058 5.549,-4.101 8.309,-6.171 3.45,-2.587 6.883,-5.196 10.326,-7.794 2.525,-1.905 5.052,-3.807 7.578,-5.71 3.1,-2.335 6.194,-4.677 9.307,-6.995 0.475,-0.353 0.853,-0.76 1.169,-1.245 0.45,-0.689 0.789,-1.431 1.027,-2.212 0.808,-2.65 0.36,-5.005 -1.645,-7.011 C 53.013,39.571 52.093,38.969 51.21,38.31 47.87,35.817 44.547,33.301 41.208,30.806 38.559,28.828 35.887,26.879 33.24,24.898 30.977,23.205 28.743,21.471 26.478,19.78 24.558,18.348 22.599,16.967 20.678,15.536 16.528,12.445 12.379,9.352 8.252,6.229 5.504,4.149 2.658,2.199 0,0" /></g><g
         transform="matrix(0.31508038,0,0,0.31508038,7.9664846,32.733231)"
         id="g3011"><path
           inkscape:connector-curvature="0"
           id="path3013"
           style="fill:#73a46c;fill-opacity:1;fill-rule:nonzero;stroke:none"
           d="m 0,0 c 0.012,-0.527 0.035,-1.053 0.035,-1.58 10e-4,-27.423 10e-4,-54.846 0,-82.269 0,-0.766 -0.01,-1.532 -0.015,-2.298 -0.425,0.064 -0.727,-0.198 -1.045,-0.405 -0.764,-0.497 -1.526,-0.997 -2.282,-1.508 -0.411,-0.278 -0.847,-0.428 -1.35,-0.404 -0.431,0.02 -0.865,-0.018 -1.295,0.008 -1.748,0.11 -2.983,0.962 -3.633,2.599 -0.23,0.579 -0.377,1.188 -0.38,1.821 -10e-4,0.288 -0.002,0.576 -0.002,0.864 0,26.685 0.01,53.371 -0.024,80.056 -0.002,1.6 0.511,2.904 1.475,4.086 1.325,1.624 3.003,1.99 4.881,1.057 C -2.907,1.666 -2.227,1.206 -1.524,0.793 -1.03,0.503 -0.576,0.133 0,0" /></g><g
         transform="matrix(0.31508038,0,0,0.31508038,12.89973,4.8794639)"
         id="g3035"><path
           inkscape:connector-curvature="0"
           id="path3037"
           style="fill:#c6793b;fill-opacity:1;fill-rule:nonzero;stroke:none"
           d="m 0,0 c 2.658,2.199 5.504,4.149 8.252,6.229 4.127,3.123 8.276,6.216 12.426,9.307 1.921,1.431 3.88,2.812 5.8,4.244 2.265,1.691 4.499,3.425 6.762,5.118 2.647,1.981 5.319,3.93 7.968,5.908 3.339,2.495 6.662,5.011 10.002,7.504 0.883,0.659 1.803,1.261 2.59,2.048 2.005,2.006 2.453,4.361 1.645,7.011 -0.238,0.781 -0.577,1.523 -1.027,2.212 -0.316,0.485 -0.694,0.892 -1.169,1.245 -3.113,2.318 -6.207,4.66 -9.307,6.995 -2.526,1.903 -5.053,3.805 -7.578,5.71 -3.443,2.598 -6.876,5.207 -10.326,7.794 -2.76,2.07 -5.54,4.113 -8.309,6.171 -4.153,3.087 -8.304,6.176 -12.454,9.267 -1.614,1.202 -3.225,2.408 -4.833,3.619 -0.188,0.141 -0.347,0.323 -0.519,0.486 0.922,0.104 1.678,-0.337 2.409,-0.788 2.04,-1.26 4.076,-2.526 6.088,-3.83 14.525,-9.42 28.931,-19.019 43.352,-28.596 3.716,-2.467 7.436,-4.927 11.138,-7.414 2.224,-1.493 2.99,-3.654 2.654,-6.239 -0.107,-0.82 -0.554,-1.527 -1.109,-2.145 -0.579,-0.645 -1.23,-1.204 -1.957,-1.682 C 56.85,36.456 51.21,32.726 45.563,29.007 40.277,25.525 34.984,22.053 29.695,18.577 20.558,12.572 11.417,6.574 2.29,0.553 1.568,0.077 0.852,-0.18 0,0" /></g></g></g></svg>